<?xml version="1.0" standalone="no"?>
<!DOCTYPE svg PUBLIC "-//W3C//DTD SVG 20010904//EN"
 "http://www.w3.org/TR/2001/REC-SVG-20010904/DTD/svg10.dtd">
<svg version="1.0" xmlns="http://www.w3.org/2000/svg"
 width="319.000000pt" height="319.000000pt" viewBox="0 0 319.000000 319.000000"
 preserveAspectRatio="xMidYMid meet">

<g transform="translate(0.000000,319.000000) scale(0.100000,-0.100000)"
fill="#000000" stroke="none">
<path d="M1380 3176 c-694 -101 -1229 -616 -1358 -1311 -23 -124 -23 -416 0
-540 63 -335 212 -621 447 -856 235 -235 521 -384 856 -447 124 -23 416 -23
540 0 335 63 621 212 856 447 235 235 384 521 447 856 23 124 23 416 0 540
-63 335 -212 621 -447 856 -234 234 -524 386 -851 445 -119 22 -372 27 -490
10z m348 -177 c-2 -6 -8 -10 -13 -10 -5 0 -11 4 -13 10 -2 6 4 11 13 11 9 0
15 -5 13 -11z m-273 -9 c-3 -5 -10 -10 -16 -10 -5 0 -9 5 -9 10 0 6 7 10 16
10 8 0 12 -4 9 -10z m0 -60 c3 -5 1 -10 -4 -10 -6 0 -11 5 -11 10 0 6 2 10 4
10 3 0 8 -4 11 -10z m232 -34 c-10 -24 51 -32 69 -9 14 17 14 17 28 0 9 -12
42 -24 88 -33 132 -27 297 -90 403 -155 22 -13 44 -24 50 -24 10 0 58 -42 179
-159 l71 -69 -71 64 c-39 35 -93 79 -120 97 l-49 34 40 -33 c87 -70 223 -219
275 -301 30 -48 61 -87 68 -87 6 -1 12 -12 12 -26 0 -33 20 -75 37 -75 7 0 13
-2 13 -4 0 -2 3 -11 6 -20 13 -34 -25 -15 -43 22 -84 161 -177 289 -206 284
-10 -2 -17 4 -17 13 0 10 5 13 13 9 7 -4 9 -3 4 2 -5 5 -12 9 -17 9 -6 0 -103
83 -154 132 -5 4 -5 -2 -2 -15 9 -26 -18 -42 -37 -23 -9 10 -8 15 7 26 17 13
13 17 -51 59 -38 24 -91 54 -118 66 -28 13 -59 27 -70 33 -42 22 -190 65 -193
56 -6 -14 -32 -10 -32 5 0 18 -102 34 -108 17 -6 -17 -42 -13 -42 4 0 20 -169
20 -335 0 -139 -17 -172 -24 -155 -35 7 -4 9 -13 5 -20 -6 -10 -11 -9 -20 4
-11 15 -16 14 -62 -5 -44 -18 -49 -23 -45 -45 5 -28 -21 -34 -36 -8 -11 19
-17 17 -139 -59 -45 -28 -84 -59 -87 -70 -3 -13 -10 -17 -23 -13 -23 7 -117
-70 -109 -90 3 -9 -2 -14 -13 -14 -19 0 -88 -74 -136 -147 -15 -24 -30 -43
-32 -43 -5 0 -3 4 53 91 51 81 178 223 239 269 25 19 44 40 43 49 -2 9 6 15
22 16 34 2 80 33 74 49 -6 16 23 30 31 16 4 -6 18 -4 36 5 16 9 27 20 24 25
-8 13 15 24 27 12 7 -7 24 -4 55 10 67 30 229 68 316 75 55 4 77 10 77 19 0
16 26 19 35 4 3 -5 26 -10 50 -10 35 0 43 3 39 15 -4 11 0 15 16 15 15 0 20
-5 17 -14z m-857 -16 c0 -5 -7 -10 -16 -10 -8 0 -12 5 -9 10 3 6 10 10 16 10
5 0 9 -4 9 -10z m1575 -10 c3 -5 1 -10 -4 -10 -6 0 -11 5 -11 10 0 6 2 10 4
10 3 0 8 -4 11 -10z m-190 -10 c-3 -5 -10 -10 -16 -10 -5 0 -9 5 -9 10 0 6 7
10 16 10 8 0 12 -4 9 -10z m-1244 -23 c-13 -13 -26 -3 -16 12 3 6 11 8 17 5 6
-4 6 -10 -1 -17z m409 -102 c0 -8 -4 -15 -10 -15 -5 0 -10 7 -10 15 0 8 5 15
10 15 6 0 10 -7 10 -15z m1061 -18 c-1 -12 -15 -9 -19 4 -3 6 1 10 8 8 6 -3
11 -8 11 -12z m-1691 -16 c0 -6 -4 -13 -10 -16 -5 -3 -10 1 -10 9 0 9 5 16 10
16 6 0 10 -4 10 -9z m1270 -5 c0 -2 -7 -9 -15 -16 -12 -10 -15 -10 -15 4 0 9
7 16 15 16 8 0 15 -2 15 -4z m-1240 -56 c0 -5 -5 -10 -11 -10 -5 0 -7 5 -4 10
3 6 8 10 11 10 2 0 4 -4 4 -10z m1684 -195 c3 -9 0 -15 -9 -15 -8 0 -15 7 -15
15 0 8 4 15 9 15 5 0 11 -7 15 -15z m-1644 -11 c0 -8 -4 -12 -10 -9 -5 3 -10
10 -10 16 0 5 5 9 10 9 6 0 10 -7 10 -16z m-120 -70 c0 -9 -5 -14 -12 -12 -18
6 -21 28 -4 28 9 0 16 -7 16 -16z m2077 -30 c-9 -9 -28 6 -21 18 4 6 10 6 17
-1 6 -6 8 -13 4 -17z m-2352 -24 c3 -5 -1 -10 -9 -10 -9 0 -16 5 -16 10 0 6 4
10 9 10 6 0 13 -4 16 -10z m125 1 c0 -6 -4 -13 -10 -16 -5 -3 -10 1 -10 9 0 9
5 16 10 16 6 0 10 -4 10 -9z m1970 0 c0 -5 -7 -11 -15 -15 -9 -3 -15 0 -15 9
0 8 7 15 15 15 8 0 15 -4 15 -9z m200 5 c0 -3 -4 -8 -10 -11 -5 -3 -10 -1 -10
4 0 6 5 11 10 11 6 0 10 -2 10 -4z m-90 -52 c0 -17 -22 -14 -28 4 -2 7 3 12
12 12 9 0 16 -7 16 -16z m-2350 -4 c0 -5 -4 -10 -10 -10 -5 0 -10 5 -10 10 0
6 5 10 10 10 6 0 10 -4 10 -10z m348 -33 c2 -12 -3 -17 -17 -17 -12 0 -21 6
-21 13 0 31 32 34 38 4z m2317 13 c3 -5 1 -10 -4 -10 -6 0 -11 5 -11 10 0 6 2
10 4 10 3 0 8 -4 11 -10z m-2475 -35 c0 -8 -7 -15 -15 -15 -16 0 -20 12 -8 23
11 12 23 8 23 -8z m2220 -45 c0 -5 -4 -10 -10 -10 -5 0 -10 5 -10 10 0 6 5 10
10 10 6 0 10 -4 10 -10z m208 -61 c-2 -6 -8 -10 -13 -10 -5 0 -11 4 -13 10 -2
6 4 11 13 11 9 0 15 -5 13 -11z m-2578 -14 c0 -8 -9 -15 -20 -15 -20 0 -26 11
-13 23 12 13 33 7 33 -8z m1649 -46 c11 -12 23 -42 27 -67 7 -48 -1 -289 -12
-334 l-6 -26 66 21 c50 17 68 27 72 44 7 25 31 49 40 40 4 -3 -1 -27 -10 -53
-28 -83 -15 -88 35 -14 19 27 37 50 41 50 8 0 15 -26 20 -70 7 -59 80 -15 130
78 11 20 25 32 37 32 13 0 22 8 25 23 19 92 29 128 38 133 19 12 20 -7 2 -78
-14 -56 -19 -110 -19 -230 0 -189 -18 -214 -23 -32 l-3 119 -27 -55 c-19 -39
-33 -55 -47 -55 -13 0 -21 8 -23 22 l-3 22 -33 -20 c-40 -23 -64 -17 -72 20
-11 43 -14 43 -45 1 -36 -50 -69 -55 -69 -9 0 29 -1 30 -31 24 -87 -19 -110
-39 -124 -105 -13 -66 -82 -195 -125 -233 -42 -38 -85 -48 -108 -25 -45 45 41
201 158 289 30 23 58 50 62 60 14 36 31 241 26 315 -4 53 -10 80 -22 92 -17
16 -19 15 -50 -20 -45 -52 -79 -124 -84 -182 -4 -45 -2 -52 24 -73 24 -19 26
-23 10 -23 -66 0 -76 95 -22 205 39 78 50 93 86 118 31 22 35 21 59 -4z m846
-37 c0 -18 -20 -15 -23 4 -3 10 1 15 10 12 7 -3 13 -10 13 -16z m-2216 -7 c16
-8 48 -37 73 -64 61 -67 88 -151 88 -269 0 -194 -87 -346 -204 -359 -43 -5
-48 -3 -85 33 -22 23 -44 57 -50 79 -14 51 -14 189 0 255 9 44 8 55 -10 93
-37 76 -21 161 41 219 24 22 40 28 75 28 24 0 57 -7 72 -15z m2141 -146 c0
-24 -23 -21 -28 4 -2 10 3 17 12 17 10 0 16 -9 16 -21z m-1683 -21 c-4 -18
-13 -69 -21 -113 -17 -92 -21 -225 -6 -225 15 0 71 118 84 174 6 27 17 51 25
54 11 4 12 -7 6 -56 -7 -59 4 -102 25 -102 22 0 80 64 106 118 29 61 44 53 25
-14 -6 -21 -9 -39 -7 -41 1 -2 14 14 27 35 35 53 53 49 60 -16 4 -29 10 -56
13 -60 13 -13 41 16 68 71 33 66 62 87 86 63 14 -14 12 -19 -22 -51 -67 -63
-16 -92 62 -34 23 17 42 26 42 20 0 -19 -82 -71 -110 -71 -15 0 -33 7 -40 15
-11 13 -15 12 -36 -10 -41 -44 -73 -26 -84 48 l-6 42 -20 -33 c-37 -64 -41
-68 -61 -56 -15 9 -24 6 -51 -17 -44 -39 -79 -38 -95 1 l-13 29 -32 -64 c-23
-47 -37 -65 -51 -65 -21 0 -26 10 -36 78 -7 40 -8 42 -24 28 -38 -34 -67 -14
-79 55 l-7 43 -28 -47 c-35 -59 -57 -62 -57 -7 0 49 26 118 40 104 6 -6 4 -27
-5 -57 -8 -26 -13 -47 -11 -47 2 0 15 18 30 40 36 55 52 52 58 -11 7 -71 23
-82 57 -41 21 24 30 48 34 90 8 73 35 162 49 162 7 0 8 -12 5 -32z m120 -14
c8 -20 -13 -42 -27 -28 -12 12 -3 44 11 44 5 0 12 -7 16 -16z m1581 -105 c3
-15 -17 -39 -52 -63 -25 -17 -14 -46 17 -46 13 0 43 14 65 30 51 37 63 38 31
4 -51 -55 -117 -70 -143 -33 l-15 22 -29 -24 c-25 -21 -30 -33 -35 -89 -13
-131 -61 -230 -111 -230 -77 0 -53 125 45 242 28 33 39 56 39 79 l0 33 -33
-32 c-51 -50 -77 -39 -57 23 22 66 103 121 125 84 10 -16 -3 -23 -18 -11 -19
16 -52 -9 -77 -58 -23 -44 -24 -50 -11 -50 5 0 22 18 38 40 15 22 33 40 39 40
14 0 24 -23 24 -51 0 -19 3 -18 35 7 19 14 35 32 35 39 0 17 59 67 74 62 6 -2
12 -10 14 -18z m-2274 -398 c3 -5 0 -14 -8 -20 -11 -9 -15 -7 -19 9 -5 20 16
29 27 11z m2436 -140 c0 -11 -26 -22 -34 -14 -12 12 -5 23 14 23 11 0 20 -4
20 -9z m-2510 -16 c0 -8 -4 -15 -9 -15 -13 0 -22 16 -14 24 11 11 23 6 23 -9z
m578 -88 c3 -13 -6 -22 -27 -30 -17 -6 -32 -18 -35 -27 -2 -8 -4 7 -5 33 l-1
48 32 -3 c22 -2 34 -9 36 -21z m216 7 c4 -9 1 -23 -5 -30 -9 -11 -8 -18 1 -29
9 -11 9 -15 1 -15 -6 0 -14 7 -17 15 -8 21 -42 19 -47 -2 -3 -10 -5 3 -6 30
l-1 47 34 0 c22 0 36 -6 40 -16z m236 -4 c6 -12 8 -30 5 -40 -7 -24 -51 -37
-74 -23 -20 13 -27 63 -9 74 25 16 67 10 78 -11z m212 -12 c-2 -18 -9 -39 -14
-45 -12 -15 -44 -17 -53 -3 -4 6 4 9 17 7 19 -2 24 3 26 27 2 16 -2 32 -10 37
-9 6 -5 9 13 9 23 0 25 -3 21 -32z m190 25 c-38 -5 -38 -24 -1 -34 24 -7 24
-7 -3 -8 -40 -1 -36 -29 5 -34 31 -4 31 -4 -5 -5 l-38 -2 0 45 0 45 38 -2 37
-1 -33 -4z m243 -3 c4 -6 -5 -7 -24 -4 -23 5 -32 2 -40 -14 -15 -29 11 -54 46
-46 18 5 24 3 19 -5 -9 -15 -59 -14 -74 1 -7 7 -12 21 -12 33 0 12 5 26 12 33
14 14 64 16 73 2z m193 3 c-13 -3 -18 -16 -20 -46 l-1 -42 -4 42 c-3 29 -9 43
-21 46 -9 3 1 5 23 5 22 0 32 -2 23 -5z m-1833 -23 c0 -7 -6 -15 -12 -17 -8
-3 -13 4 -13 17 0 13 5 20 13 18 6 -3 12 -11 12 -18z m-115 -5 c0 -8 -4 -15
-10 -15 -5 0 -10 7 -10 15 0 8 5 15 10 15 6 0 10 -7 10 -15z m2440 -5 c0 -4
-7 -13 -15 -20 -8 -7 -15 -9 -15 -4 0 4 -7 -1 -16 -12 -8 -10 -13 -14 -10 -8
3 6 10 23 15 37 7 18 15 25 26 21 8 -3 15 -10 15 -14z m-153 -26 c8 -21 -13
-42 -28 -27 -13 13 -5 43 11 43 6 0 13 -7 17 -16z m320 -36 c-3 -8 -6 -5 -6 6
-1 11 2 17 5 13 3 -3 4 -12 1 -19z m-248 -50 c-45 -90 -150 -227 -237 -309
-203 -192 -463 -301 -777 -327 -171 -15 -389 17 -547 79 -84 33 -229 112 -291
158 -68 51 -77 66 -12 20 25 -18 47 -30 50 -27 3 3 -7 13 -22 23 -73 47 -250
237 -298 320 -20 34 -9 23 59 -63 34 -43 53 -59 60 -52 13 13 26 13 26 0 0 -5
-8 -10 -17 -10 -13 0 -12 -5 8 -26 36 -38 144 -131 134 -115 -7 13 35 -13 118
-71 15 -10 35 -18 45 -16 9 2 16 -2 15 -9 -3 -15 80 -43 108 -36 17 5 21 3 17
-9 -5 -11 4 -19 33 -27 22 -7 45 -9 51 -5 6 4 8 3 5 -3 -7 -10 73 -35 168 -52
79 -15 241 -24 256 -16 7 5 37 7 66 6 43 -2 53 1 53 13 0 18 26 22 32 5 2 -7
39 -2 113 16 61 15 121 29 135 31 86 15 314 159 460 292 45 40 160 182 160
196 0 10 43 66 47 62 3 -2 -5 -24 -18 -48z m-2180 24 c8 -14 6 -18 -10 -19
-13 -1 -19 5 -19 18 0 24 16 25 29 1z m2301 -22 c0 -5 -7 -10 -16 -10 -8 0
-12 5 -9 10 3 6 10 10 16 10 5 0 9 -4 9 -10z m-2530 -30 c0 -5 -2 -10 -4 -10
-3 0 -8 5 -11 10 -3 6 -1 10 4 10 6 0 11 -4 11 -10z m325 -20 c-5 -8 -11 -8
-17 -2 -6 6 -7 16 -3 22 5 8 11 8 17 2 6 -6 7 -16 3 -22z m115 -25 c0 -8 -7
-15 -15 -15 -26 0 -18 20 13 29 1 1 2 -6 2 -14z m1818 4 c-2 -6 -8 -10 -13
-10 -5 0 -11 4 -13 10 -2 6 4 11 13 11 9 0 15 -5 13 -11z m-2024 -30 c-3 -5
-10 -7 -15 -3 -5 3 -7 10 -3 15 3 5 10 7 15 3 5 -3 7 -10 3 -15z m-54 -29 c0
-5 -7 -7 -15 -4 -8 4 -12 10 -9 15 6 11 24 2 24 -11z m1958 -19 c3 -8 -1 -12
-9 -9 -7 2 -15 10 -17 17 -3 8 1 12 9 9 7 -2 15 -10 17 -17z m102 -1 c0 -5 -4
-10 -10 -10 -5 0 -10 5 -10 10 0 6 5 10 10 10 6 0 10 -4 10 -10z m-1742 -61
c-2 -6 -8 -10 -13 -10 -5 0 -11 4 -13 10 -2 6 4 11 13 11 9 0 15 -5 13 -11z
m1612 -59 c-18 -11 -22 -7 -14 14 5 13 10 14 18 6 8 -8 7 -13 -4 -20z m-1494
-21 c10 -17 -23 -46 -38 -31 -8 8 -8 15 2 27 15 18 26 19 36 4z m1559 -49 c3
-5 1 -10 -4 -10 -6 0 -11 5 -11 10 0 6 2 10 4 10 3 0 8 -4 11 -10z m-155 -10
c0 -5 -2 -10 -4 -10 -3 0 -8 5 -11 10 -3 6 -1 10 4 10 6 0 11 -4 11 -10z m192
-52 c-7 -7 -12 -8 -12 -2 0 14 12 26 19 19 2 -3 -1 -11 -7 -17z m-334 -5 c5
-17 -26 -29 -40 -15 -6 6 -7 15 -3 22 9 14 37 9 43 -7z m-918 -31 c0 -13 -12
-22 -22 -16 -10 6 -1 24 13 24 5 0 9 -4 9 -8z m630 -27 c0 -8 -4 -15 -10 -15
-5 0 -10 7 -10 15 0 8 5 15 10 15 6 0 10 -7 10 -15z m150 -6 c0 -5 -7 -9 -15
-9 -15 0 -20 12 -9 23 8 8 24 -1 24 -14z m-1210 -19 c0 -5 -7 -10 -15 -10 -8
0 -15 5 -15 10 0 6 7 10 15 10 8 0 15 -4 15 -10z m550 -36 c0 -17 -22 -14 -28
4 -2 7 3 12 12 12 9 0 16 -7 16 -16z m148 -17 c2 -12 -3 -17 -17 -17 -15 0
-21 6 -21 21 0 25 33 22 38 -4z m772 -12 c0 -8 -4 -15 -10 -15 -5 0 -10 7 -10
15 0 8 5 15 10 15 6 0 10 -7 10 -15z m-1210 -5 c0 -5 -5 -10 -11 -10 -5 0 -7
5 -4 10 3 6 8 10 11 10 2 0 4 -4 4 -10z m1354 -25 c-4 -8 -8 -15 -10 -15 -2 0
-4 7 -4 15 0 8 4 15 10 15 5 0 7 -7 4 -15z m-1379 -35 c3 -5 -1 -10 -9 -10 -9
0 -16 5 -16 10 0 6 4 10 9 10 6 0 13 -4 16 -10z m-205 -10 c0 -5 -5 -10 -11
-10 -5 0 -7 5 -4 10 3 6 8 10 11 10 2 0 4 -4 4 -10z m960 -24 c0 -3 -4 -8 -10
-11 -5 -3 -10 -1 -10 4 0 6 5 11 10 11 6 0 10 -2 10 -4z m0 -65 c0 -6 -4 -13
-10 -16 -5 -3 -10 1 -10 9 0 9 5 16 10 16 6 0 10 -4 10 -9z m-265 -21 c-3 -5
-10 -10 -16 -10 -5 0 -9 5 -9 10 0 6 7 10 16 10 8 0 12 -4 9 -10z m105 -100
c0 -5 -4 -10 -10 -10 -5 0 -10 5 -10 10 0 6 5 10 10 10 6 0 10 -4 10 -10z"/>
<path d="M2382 1688 c-21 -36 -36 -98 -23 -98 4 0 14 12 21 28 41 90 43 138 2
70z"/>
<path d="M1876 1523 c-113 -92 -188 -253 -117 -253 34 0 80 49 115 123 34 71
61 155 53 163 -2 3 -25 -13 -51 -33z"/>
<path d="M471 1974 c-29 -21 -60 -88 -61 -131 0 -32 18 -83 29 -83 4 0 15 23
26 51 11 28 24 53 28 56 19 12 19 -10 -2 -63 -11 -31 -21 -62 -21 -69 0 -18
72 -45 120 -45 21 0 42 -5 46 -11 11 -18 -121 -5 -150 14 -31 20 -32 16 -46
-105 -26 -230 88 -344 211 -211 61 65 91 158 90 282 -1 101 -18 169 -62 234
-58 88 -148 123 -208 81z"/>
<path d="M1510 1685 c-8 -9 -8 -15 -2 -15 12 0 26 19 19 26 -2 2 -10 -2 -17
-11z"/>
<path d="M2710 1685 c-7 -8 -8 -15 -2 -15 5 0 15 7 22 15 7 8 8 15 2 15 -5 0
-15 -7 -22 -15z"/>
<path d="M2543 1508 c-56 -64 -99 -160 -87 -193 16 -42 76 6 93 74 12 45 24
141 19 141 -3 0 -14 -10 -25 -22z"/>
<path d="M930 1065 c0 -11 7 -15 23 -13 12 2 22 8 22 13 0 6 -10 11 -22 13
-16 2 -23 -2 -23 -13z"/>
<path d="M1140 1065 c0 -9 9 -15 25 -15 16 0 25 6 25 15 0 9 -9 15 -25 15 -16
0 -25 -6 -25 -15z"/>
<path d="M1371 1066 c-26 -31 14 -71 45 -45 21 17 14 53 -12 57 -11 2 -26 -4
-33 -12z"/>
<path d="M910 505 c0 -2 15 -12 33 -20 l32 -16 -25 20 c-24 20 -40 26 -40 16z"/>
<path d="M1020 440 c8 -5 20 -10 25 -10 6 0 3 5 -5 10 -8 5 -19 10 -25 10 -5
0 -3 -5 5 -10z"/>
</g>
</svg>
